<svg xmlns="http://www.w3.org/2000/svg" id="katman_1" data-name="katman 1" viewBox="0 0 1351.24 261.39"><defs><style>      .cls-1 {        fill: #4a5157;      }      .cls-2 {        fill: #39cbbb;      }    </style></defs><path class="cls-1" d="m37.85,130.9c-1.35-52.51,40.7-89.22,82.69-93.49,26.94-2.74,51.95,5.17,72.65,23.37,15.27,13.43,25.65,30.77,29.37,50.42,5.87,31.02-1.37,59.57-23.61,82.97-18.38,19.33-40.94,29.34-68,29.77-47.98.77-95.07-41.3-93.1-93.04Zm92.28-41.69c-6.29-.33-12.84,2.4-17.22,8.13-15.32,20.02-30.22,40.36-45.17,60.66-3.24,4.4-1.33,10.81,3.55,13.21,4.08,2.01,8.41.9,11.55-3.25,11.26-14.88,22.42-29.82,33.66-44.71,3.2-4.24,6.35-8.54,9.88-12.49,3.49-3.91,5.86-3.74,9.61-.03.67.67,1.25,1.43,1.83,2.19,13.84,18.4,27.66,36.82,41.53,55.2,3.38,4.48,8.73,5.31,12.97,2.21,3.59-2.63,4.39-9.25,1.44-13.2-14.59-19.54-29.21-39.04-43.83-58.56-4.65-6.21-10.84-9.33-19.81-9.35Zm.44,74.68c6.77-.03,12.1-5.08,12.16-11.5.06-6.45-5.06-11.55-11.61-11.57-6.56-.02-11.63,4.83-11.57,11.05.07,6.81,4.88,12.05,11.02,12.02Z"/><path class="cls-2" d="m131.46,261.39c-24.65,0-46.68-6.61-67.3-18.49-18.7-10.77-32.94-25.91-44.62-43.85-3.75-5.76-6.53-11.99-10.13-17.8-1.72-2.77-2.51-6.27-3.1-9.55-1.47-8.23-3.64-16.26-6.03-24.25-.37-1.23.03-2.67-.05-4.01-.89-15.33.88-30.44,3.46-45.51,1.2-7.01,4.11-13.21,7.39-19.44,1.47-2.79,2.29-6.02,3.81-9.01,7.25-14.18,17.09-26.39,28.83-36.84,9.01-8.01,18.65-15.54,30.37-19.67,3.14-1.11,5.91-3.21,8.99-4.52,8.1-3.45,16.66-5.41,25.3-6.76,13.5-2.11,27.05-2.17,40.67-.6,9.22,1.07,18.07,3.62,26.81,6.33,4.85,1.51,10.22,2.72,14.2,6.53.76.73,1.8,1.52,2.77,1.62,6.82.69,11.33,5.86,15.87,9.66,9.18,7.68,19.55,14.48,25.5,25.53.96,1.77,3,2.6,4.36,4.19,4.82,5.63,6.44,13.01,10.6,18.87,2.91,4.1,4.1,9.07,5.51,13.32,1.66,5.01,3.65,10.37,4.32,16.06.86,7.26,1.99,14.52,2.56,21.85.29,3.76-1.5,4.87-4.69,4.97-1.36.04-2.73-.03-4.1.04-2.48.14-3.43-1.03-3.37-3.45.3-12.09-3.43-23.5-7.06-34.69-4.07-12.54-9.76-24.7-18.43-34.81-7.87-9.18-16.3-17.9-26.69-24.59-7.74-4.99-15.73-9.06-24.34-12.34-13.97-5.31-28.23-8.36-43.16-7.96-8.23.22-16.25,1.41-24.38,3.4-8.08,1.98-16.09,3.84-23.68,7.21-9.88,4.38-18.79,10.3-26.87,17.49-2.96,2.63-5.86,5.29-8.69,8.07-7.62,7.47-13.83,16.03-19.32,25.06-2.94,4.82-4.93,10.3-6.83,15.66-7.66,21.51-9.79,43.56-4.82,65.94,3.42,15.4,9.34,29.8,18.65,42.82,7.9,11.05,16.56,21.39,27.69,29.08,22.07,15.25,46.73,23.12,73.67,22.1,18.67-.7,36.29-5.58,52.84-14.8,16.53-9.21,30.12-21.31,40.86-36.74,6.59-9.47,11.78-19.73,14.82-30.84,1.05-3.83,3.73-7.41,2.7-11.91-.22-.98.71-4.16,3.71-2.33,2.11,1.28,4.54.54,6.82.64,2.09.1,2.59.79,2.41,3.06-.8,10.03-5.75,18.68-9.26,27.74-4.35,11.22-10.91,21.24-18.72,30.56-6.25,7.46-13.25,14.11-20.63,20.18-9.07,7.45-19.68,12.69-30.7,17-10.47,4.09-21.17,6.79-32.33,8.42-5.68.83-11.3.9-16.19,1.36Z"/><path class="cls-1" d="m506.78,93.85c17.62,0,35.24-.01,52.86.02,2.02,0,4.07-.19,6.02.73,3.83,1.81,5.81,5.45,4.93,9.23-1.27,5.46-2.71,6.71-8.26,6.72-35.1.03-70.2.02-105.3.02-6.42,0-10.32,2.65-10.11,6.87.21,4.03,4.28,6.53,10.24,6.52,31-.03,62.01.06,93.01-.06,13.89-.05,21.77,6.49,24.6,16.89,4.03,14.78-3.55,26.01-17.65,30.22-2.21.66-4.81-.03-7.24-.03-34.01-.01-68.02-.01-102.03-.02-2.14,0-4.33.23-6.42-.13-2.79-.48-5.79-5.01-5.92-8.36-.11-2.94,2.73-6.53,5.72-7.51,2.26-.74,4.55-.77,6.87-.77,34.42,0,68.84,0,103.26,0,3.47,0,7.4-2.71,7.85-5.36.69-4.01-2.6-7.94-6.85-7.96-13.52-.05-27.04-.02-40.56-.03-19.67,0-39.35-.42-59,.16-8.08.24-18.99-8.52-21.33-16.77-3.86-13.61,3.66-25.91,16.85-29.83,2.26-.67,4.81-.5,7.23-.51,17.07-.04,34.15-.02,51.22-.02v-.02Z"/><path class="cls-1" d="m1275.11,170.97c-18.57,0-37.14,0-55.71,0-4.48,0-8.76-4.13-8.4-8.44.33-3.93,3.81-8.41,8.55-8.4,35.78.13,71.55.06,107.33.05,4.09,0,7.46-2.56,7.77-5.85.38-4.01-2.77-7.46-6.99-7.47-17.21-.03-34.41.07-51.62-.04-16.65-.11-33.31.35-49.96-.27-6.22-.23-10.81-3.42-14.39-7.7-9.07-10.85-7.8-25.84,3.63-34.27,4.06-2.99,8.94-4.65,14.16-4.65,33.46-.02,66.91-.03,100.37-.05,2.46,0,4.92-.12,7.37-.04,5.35.16,8.96,3.72,8.86,8.61-.1,4.79-3.73,8.11-9.05,8.12-35.23.02-70.46.02-105.69,0-2.61,0-5.22-.15-6.98,2.31-1.33,1.86-2.67,3.62-1.45,6.21,1.22,2.59,2.64,4.74,5.8,4.81,3.28.07,6.55.04,9.83.04,29.36.02,58.72-.04,88.08.07,11.68.04,21.15,5.96,23.89,17.74,3.31,14.21-4.6,25.74-18.13,29.35-2,.53-4.29-.12-6.45-.12-16.93-.02-33.87,0-50.8-.01Z"/><path class="cls-1" d="m1116.63,93.91c12.29,0,24.58.26,36.86-.07,14.11-.38,23.49,6.49,29.71,18.44,6.18,11.86,6.32,24.12,1.79,36.57-4.14,11.35-12.44,18.29-23.58,22.05-1.92.65-4.25.09-6.39.08-27.17-.06-54.33-.23-81.5-.14-11.51.04-17.93-7.4-23.73-15.57-4.56-6.42-6.92-14.32-6.67-21.81.48-14.7,5.31-27.93,19.13-35.96,4.55-2.64,9.46-3.64,14.64-3.65,13.24,0,26.49,0,39.73,0v.05Zm-.75,16.69v.06c-12.57,0-25.13,0-37.7,0-4.25,0-7.88,1.62-11.03,4.4-6.34,5.59-7.98,13.04-6.95,20.8,1.25,9.52,6.45,18.08,18.46,18.23,24.85.31,49.71.12,74.57.06,5.61-.01,10.27-2.28,14.02-6.52,4.25-4.82,4.02-10.63,4.4-16.54.71-10.87-7.45-21.03-20.53-20.58-11.73.4-23.49.08-35.24.08Z"/><path class="cls-1" d="m905.66,123.69c7.36.08,14.72.21,22.07.24,8.33.03,16.66.47,24.97.48,8.27.02,16.2,1.65,24.23,3.02,14.48,2.47,26.96,9.19,37.69,18.89,4.01,3.62,7.57,8.12,10.17,13.08,1.56,2.98.75,8.7-1.35,10.15-3.87,2.67-8.94,2.38-12.16-.88-4.07-4.12-7.53-8.79-12.23-12.35-8.59-6.52-17.7-11.31-28.62-13.12-21.35-3.55-42.79-1.83-64.19-2.37-2.47-.06-2.45,1.31-2.41,3.16.13,6.14.27,12.29.09,18.43-.13,4.37-3.12,8.02-6.98,8.8-3.45.7-6.3-.52-8.53-3.35-.92-1.17-1.21-2.41-1.21-3.75.03-17.41-.35-34.83.33-52.21.33-8.49,9.14-17.21,17.16-17.68,9.42-.55,18.84-.31,28.26-.33,21.99-.06,43.99.16,65.98-.06,9.57-.1,17.21,3.44,23.2,10.59,4.06,4.85,3.84,10.91,3.32,16.76-.19,2.14-6.91,5.39-9.38,5.03-3.79-.57-7.14-4.25-7.58-8.35-.54-5.01-3.02-7.26-8.2-7.26-29.37-.01-58.74.23-88.11-.16-8.42-.11-10.58,5.79-7.47,12.84.07.31.04.8.23.91.34.19.71,0,.74-.49Z"/><path class="cls-1" d="m653.48,93.85c16.38,0,32.77-.02,49.15.01,3.94,0,8.09-.54,11.78.47,6,1.64,11.35,4.8,14.77,10.48,9.19,15.25.23,30.59-14.74,35.92-.86.31-1.89.23-2.84.23-32.08-.03-64.16-.02-96.24-.2-3.55-.02-4.78.8-4.56,4.51.34,5.58-.05,11.19.12,16.79.14,4.48-2.42,7.18-5.93,8.8-2.98,1.38-5.87-.24-8.56-1.88-2.63-1.61-2.1-4.17-2.11-6.46-.06-19.79-.06-39.59,0-59.39.02-7.13,2.2-9.2,9.61-9.21,16.52-.04,33.04-.01,49.56-.01v-.06Zm9.39,16.85c-13.18.55-29.28-.86-45.34.67-2.01.19-4.51-.86-5.92.47-1.45,1.36-.31,3.9-.56,5.9-.74,6.09-.76,6.09,5.25,6.1,29.22,0,58.44,0,87.65.02,2.14,0,4.35.72,6.4.37,3.85-.67,5.85-3.82,5.47-7.76-.35-3.61-2.83-5.72-7.06-5.74-14.34-.05-28.67-.02-45.9-.02Z"/><path class="cls-1" d="m412.49,162.96c.83,3.99-2.19,6.72-5.08,7.99-3.28,1.45-7.22.58-9.78-2.85-6.25-8.39-12.49-16.78-18.78-25.14-7.61-10.13-15.07-20.4-22.96-30.3-5.41-6.79-7.75-6.43-13.3.43-1.55,1.92-2.63,4.11-4.39,5.93-6.16,6.38-11.43,13.56-16.26,20.93-6.12,9.33-13.81,17.38-20.18,26.49-4.94,7.07-12.2,6.57-15.63-.48-1.57-3.24-.79-6.29.96-8.67,10.58-14.44,21.43-28.69,32.17-43.01,3.29-4.38,6.54-8.79,9.76-13.22,7.03-9.69,17.81-13.86,28.63-9.62,4.63,1.81,8.88,5.39,11.78,10.19,3.13,5.17,6.79,10.07,10.7,14.69,5.94,7.02,11,14.67,16.55,21.97,4.73,6.22,9.31,12.56,14.08,18.75,1.33,1.73,1.89,3.53,1.74,5.95Z"/><path class="cls-1" d="m868.92,162.65c1.35,5.44-3.22,6.36-5.87,8.28-2.31,1.68-7.29-.16-9.36-2.9-9.59-12.74-19.15-25.52-28.7-38.28-4.29-5.74-8.5-11.54-12.86-17.22-4.35-5.68-8.74-6-13.18-.42-7.39,9.28-14.41,18.86-21.53,28.36-5.84,7.78-11.7,15.55-17.33,23.48-1.82,2.57-3.09,5.29-6.43,6.51-3.71,1.36-7.16,1.04-9.55-1.72-3.27-3.76-3.64-7.09-.97-10.84,3.84-5.39,7.78-10.7,11.71-16.02,10.01-13.57,19.99-27.15,30.06-40.67,4.57-6.13,10.52-10.65,18.3-10.93,8.21-.29,15.59,1.85,20.88,9.38,4.96,7.05,10.47,13.78,15.63,20.7,9.55,12.79,18.86,25.76,28.61,38.4,1.08,1.4.29,2.89.59,3.9Z"/><path class="cls-2" d="m1292.96,236.77c3.78.65,7.4.05,10.61,3.03,4.01,3.71,17.95,2.37,21.87-1.49,1.28-1.26,1.65-2.68.83-4.03-1.02-1.68-2.06.2-3.08.44-8.18,1.91-16.28,2.47-24.12-1.3-4.76-2.29-7.68-6.26-7.75-11.46-.07-5.43,4.32-10.52,9.79-12.02,7.83-2.14,15.72-3.17,23.46.58.73.36,1.64,1.13,2.44-.11,1.96-3.05,4.92-.96,7.39-1.3,1.34-.19,1.14,1.26,1.14,2.16,0,7.64.05,15.28-.08,22.92-.09,5.23-3.38,8.31-7.94,9.75-9.62,3.04-19.4,2.76-29.09.16-3.33-.89-4.81-3.63-5.5-7.33Zm21.25-4.87c2.76.07,5.38-.53,7.94-1.53,3.72-1.47,5.6-4.3,5.66-8.17.06-3.74-1.85-6.52-5.26-8.04-5.77-2.59-11.62-2.66-17.32.19-3.9,1.95-5.43,5.68-4.37,9.93,1.23,4.95,5.92,7.63,13.35,7.62Z"/><path class="cls-2" d="m953.24,209.58c-2.08.36-4.25-.05-6.3.93-1.59.76-2.75-.5-3.78-1.68-3.73-4.23-8.38-6.15-14.05-5.58-5.09.51-10.21-.84-15.32,1.25-6.56,2.68-10.13,6.42-10.28,12.15-.17,6.44,3.29,11.7,9.7,13.98,6.93,2.46,14.08,2.99,21.24,1.05,2.85-.77,5.48-2.12,7.71-4.23,4.94-4.7,5.21-4.7,12.07-2.39-.66,2.68-2.54,4.44-4.67,5.89-5.37,3.65-11.32,5.69-17.83,5.82-9.01.18-18.06.74-26.59-3.25-6.48-3.03-10.12-8.23-11.42-15.05-1.1-5.78,4-13.3,11.14-16.13,12.65-5.01,25.66-5.71,38.58-1.33,5.83,1.98,9.2,4.12,9.8,8.57Z"/><path class="cls-2" d="m606.04,213c-4.43.08-8.81-.68-12.43,3.45-1.54,1.76-4.9.71-7.41.51-1.02-.08-.71-1.3-.4-2.03.96-2.23,2.63-3.63,4.99-4.34,9.84-2.96,19.75-3.57,29.71-.83,5.15,1.41,6.44,3.58,6.77,8.72.37,5.61-1.48,11.46,1.63,16.82.28.49.09,1.29-.51,1.3-2.74.03-6.27,1.74-7.99-.91-1.81-2.78-3.13-1.96-5.28-1.11-7.93,3.12-16.15,3-24.3,1.34-2.88-.58-6.11-1.74-6.86-5.39-1-4.92,2.69-7.47,6.28-8.4,7.29-1.89,14.85-1.29,22.22-2.49.13-.02.28.02.41-.02,1.91-.52,5.26.48,5.25-2.21,0-2.99-3.21-4.01-5.94-4.37-2.01-.26-4.09-.05-6.13-.05Zm-3.56,19.72c4.56.05,8.54-.61,12.28-2.44,2.06-1.01,3.55-2.46,3.62-4.98.03-1.44-.09-2.22-2-1.97-4.98.65-9.99.96-14.98,1.5-1.74.19-3.49.53-5.18,1.01-1.44.42-3,1.13-3.04,2.88-.03,1.75,1.5,2.53,2.91,3,2.19.72,4.47,1.17,6.39.99Z"/><path class="cls-2" d="m813.37,212.99c-4.45.04-8.84-.65-12.4,3.52-1.48,1.73-4.66.48-7.05.54-1.44.04-1.05-1.3-.69-2.17.94-2.26,2.65-3.6,5.01-4.31,9.98-3,20.03-3.5,30.12-.74,4.5,1.23,5.96,3.69,6.29,8.31.41,5.75-1.45,11.73,1.65,17.23.3.53-.04.99-.58,1.32-1.57.95-7.41-.05-8.4-1.71-1.22-2.06-2.51-1.31-4.14-.69-8.84,3.38-17.84,3.78-26.89.93-3.65-1.15-5.85-3.59-4.92-7.6.78-3.38,3.69-4.6,6.72-5.47,7.27-2.1,14.87-1.21,22.22-2.55,1.91-.35,5.18.59,5.21-2.24.03-2.87-3.13-3.82-5.62-4.28-2.11-.39-4.35-.08-6.53-.08Zm-3.33,19.73c4.4.05,8.25-.6,11.88-2.32,2.05-.97,3.68-2.3,3.83-4.83.09-1.54.1-2.53-2.12-2.21-4.7.67-9.45.92-14.17,1.4-1.75.18-3.53.39-5.21.87-1.67.47-3.72,1.09-3.65,3.24.06,1.82,1.81,2.56,3.42,3.03,2.1.61,4.24.97,6.03.82Z"/><path class="cls-2" d="m454.38,224.06c1.41,6.67,6.86,7.64,11.67,8.51,5.24.94,10.44,0,14.83-3.76,2.96-2.55,6.19.26,9.71-.09-2.83,5.81-8.28,7.31-13.18,7.79-7.56.74-15.37,1.37-22.81-1.72-5.8-2.41-9.22-6.04-9.17-10.38.09-7.89,2.55-11.75,9.48-14.01,10.43-3.4,20.76-3.55,30.63,1.95,2.82,1.57,4.72,4.08,5.52,7.26.76,3.02-.05,4.33-3.59,4.25-10.63-.23-21.27-.07-31.91-.05-.27,0-.53.1-1.17.23Zm13.86-4.43c3.39,0,6.79.08,10.18-.04,1.21-.05,3.11.91,3.5-.81.32-1.43-1-2.79-2.28-3.61-4.59-2.93-9.65-3.34-14.89-2.51-3.12.5-6.12,1.31-8.39,3.71-.65.68-1.42,1.46-1.13,2.48.37,1.28,1.58.74,2.43.75,3.53.06,7.06.03,10.59.03Z"/><path class="cls-2" d="m1067.86,228.06c1.52-.28,2.98-.6,4.46-.81,2.02-.28,3.77-.49,5.13,1.89,2.72,4.79,17.51,4.64,21.27,1.35.66-.58,1.87-1.16,1.35-2.25-.61-1.28-2.08-1.83-3.34-2.06-3.93-.72-7.93-1.07-11.86-1.79-4.28-.78-8.74-.94-12.63-3.21-4.15-2.42-4.22-7.85.08-10.03,7.06-3.58,14.69-3.45,22.31-2.61,3.49.38,6.91,1.23,10.02,3.06,1.41.83,2.5,1.93,2.21,3.54-.37,2.02-2.13,1.08-3.36,1.11-2.43.06-4.44-.59-6.77-1.79-5.3-2.73-11.32-1.45-17.07-.92-.95.09-2.24.72-2.2,2.06.04,1.29,1.29,1.87,2.26,2.07,5.02,1.02,10.08,1.9,15.13,2.77,3.59.62,7.25.99,10.57,2.63,4.7,2.31,5.15,6.34,1.01,9.58-2.48,1.95-5.41,3.3-8.51,3.63-8.03.83-16.11,1.62-23.91-1.46-3-1.19-5.31-3.13-6.15-6.75Z"/><path class="cls-2" d="m984.22,236.81c-5.46.28-10.66-.34-15.46-2.62-4.54-2.16-7.67-5.89-7.76-10.94-.09-5.21,2.08-10.11,7.26-12.02,11.73-4.31,23.62-5.17,34.76,1.79,7.25,4.53,6.7,15.37-.65,19.76-5.66,3.38-11.82,4.52-18.15,4.03Zm2.17-24.5c-5.05-.04-8.52.59-11.65,2.44-5.83,3.46-6.1,11.98-.25,15.31,6.76,3.84,13.92,3.88,20.7.04,5.94-3.37,5.79-11.69-.04-15.25-3.11-1.9-6.6-2.5-8.76-2.54Z"/><path class="cls-2" d="m706.54,236.85c-7.07.2-14.17-.82-19.61-7.04-3.88-4.44-3.71-10-.05-14.52,3.54-4.37,8.34-6,13.65-6.64,8.9-1.08,17.64-.9,25.44,4.31,7.09,4.74,6.74,15.46-.6,19.78-4.36,2.57-9.06,4.52-18.82,4.12Zm1.45-4.13c3.18.07,6.23-.56,9.1-1.94,3.53-1.7,5.29-4.51,5.29-8.47,0-3.87-1.92-6.5-5.28-8.02-6.16-2.78-12.44-2.81-18.58.02-4.02,1.86-5.77,4.94-5.36,9.63.32,3.75,2.73,5.29,5.37,6.75,2.9,1.62,6.15,2.12,9.48,2.03Z"/><path class="cls-2" d="m1159.96,222.72c0,3.82,0,7.65,0,11.47,0,1.55-.54,2.87-2.32,2.62-1.85-.26-4.78,1.36-5.37-1.16-.87-3.74-2.65-1.83-4.05-1.1-7.25,3.74-14.8,2.68-22.21,1.16-4.16-.86-6.65-3.97-6.66-8.56,0-5.19.05-10.38-.07-15.57-.09-3.96,2.82-2.46,4.63-2.54,1.75-.08,4.34-1.13,4.2,2.51-.17,4.36-.06,8.74-.02,13.11.04,5.48,1.67,7.43,7.02,8.01,2.01.22,4.12.15,6.11-.19,7.94-1.39,9.96-3.9,9.97-11.99,0-2.19.28-4.41-.06-6.55-.67-4.32,1.15-5.23,5.16-5.12,3.23.09,3.94,1.15,3.74,4.05-.23,3.26-.05,6.55-.06,9.83Z"/><path class="cls-2" d="m533.59,222.84c0-3.41-.07-6.82.04-10.23.04-1.21-.81-3.14,1.07-3.45,2.05-.34,5.23-1.21,6.09.47,1.41,2.75,2.58.89,3.7.52,7.7-2.51,15.41-2.88,23.16-.34,4.56,1.49,6.29,3.89,6.34,8.78.06,4.91-.14,9.83.08,14.73.18,3.92-2.3,3.44-4.82,3.61-2.82.2-3.9-.68-3.75-3.62.22-4.35.12-8.73.04-13.09-.08-4.47-3.08-7.23-7.53-7.17-2.32.03-4.63-.06-6.95-.04-5.87.04-8.85,2.89-8.98,8.68-.09,3.95-.14,7.92,0,11.87.16,4.1-2.72,3.11-5.04,3.35-2.68.28-3.65-.72-3.5-3.42.19-3.54.05-7.09.05-10.64Z"/><path class="cls-2" d="m1241.81,222.6c0-3.41-.07-6.82.04-10.23.04-1.19-.79-3.13,1.29-3.27,2.04-.14,5.01-1.24,5.97.73,1.05,2.16,1.81,1.22,2.92.77,7.85-3.21,15.81-3.32,23.82-.79,4.58,1.45,6.3,3.88,6.35,8.76.06,4.91-.14,9.83.08,14.73.18,3.9-2.27,3.47-4.81,3.63-2.73.17-3.96-.5-3.77-3.54.26-4.08.08-8.18.06-12.27-.04-5.63-2.7-8.27-8.27-7.99-3.23.16-6.45-.56-9.7.53-3.77,1.27-5.49,3.69-5.51,7.52-.02,4.09-.16,8.19.02,12.27.18,4.03-2.54,3.28-4.95,3.45-2.45.17-3.8-.32-3.61-3.26.25-3.67.06-7.36.06-11.04Z"/><path class="cls-2" d="m740.97,222.77c0-3.41-.07-6.82.04-10.23.04-1.2-.81-3.25,1.13-3.37,2.1-.12,5.05-1.57,6.24.88,1.01,2.09,1.69.97,2.65.58,7.84-3.17,15.79-3.4,23.83-.85,4.71,1.5,6.45,3.81,6.51,8.63.07,5.05-.09,10.1.07,15.14.13,4.1-2.71,3.13-5.04,3.35-2.58.25-3.66-.55-3.52-3.34.22-4.35.1-8.73.04-13.09-.07-4.79-2.95-7.49-7.69-7.4-2.18.04-4.36-.02-6.54-.03-6.12-.03-9.12,2.79-9.24,8.8-.07,3.95-.09,7.91,0,11.87.1,4.16-2.94,2.93-5.17,3.18-2.34.27-3.52-.37-3.36-3.07.22-3.67.06-7.36.05-11.05Z"/><path class="cls-2" d="m1018.03,222.81c0-3.41-.07-6.82.04-10.23.04-1.21-.82-3.14,1.09-3.43,2.05-.32,5.25-1.19,6.07.5,1.11,2.31,1.97,1.42,3.22.9,7.86-3.24,15.82-3.22,23.83-.71,4.08,1.28,6.26,4.06,6.19,8.51-.08,5.05-.14,10.1.04,15.14.14,4.06-2.63,3.2-5,3.4-2.52.21-3.72-.44-3.56-3.3.23-4.22.09-8.45.05-12.68-.05-5.36-2.78-8.07-8.06-7.8-3.36.17-6.74-.58-10.1.6-3.57,1.24-5.28,3.59-5.31,7.26-.04,4.09-.2,8.19.03,12.27.22,3.85-2.16,3.56-4.75,3.68-2.64.12-4.05-.37-3.82-3.48.27-3.53.06-7.09.06-10.63Z"/><path class="cls-2" d="m368.01,222.52c0-3.28-.07-6.55.04-9.82.04-1.23-.79-3.15.99-3.52,2.05-.42,5.3-1.19,6.12.38,1.37,2.61,2.54,1.02,3.69.63,7.69-2.58,15.4-2.93,23.15-.4,4.6,1.5,6.35,3.88,6.41,8.73.06,5.05-.08,10.1.06,15.15.1,3.78-2.48,3.1-4.75,3.22-2.28.12-3.95-.03-3.8-3.12.22-4.49.11-9.01.04-13.51-.08-4.49-3.06-7.29-7.49-7.22-2.18.03-4.36.04-6.55.01-6.37-.07-9.34,2.72-9.44,9-.06,3.82-.16,7.65.03,11.46.16,3.27-2.07,2.69-3.8,2.5-1.78-.2-4.76,1.53-4.7-2.44.06-3.68.01-7.37,0-11.05Z"/><path class="cls-2" d="m816.48,152.52c.87,6.18-4.18,10.37-10.46,11.12-5.93.7-11.72-4.69-12.16-11.09-.38-5.54,5.39-11.95,11.04-12.29,6.2-.36,11,4.73,11.58,12.26Z"/><path class="cls-2" d="m349.18,162.86c-7.13,0-11.21-3.43-11.27-9.57-.07-6.99,5.56-13.39,11.31-13.02,4.72.3,11.24,3.42,11.32,11.22.08,7.9-3.3,11.37-11.36,11.37Z"/><path class="cls-2" d="m1195.86,223.15c0-1.5-.09-3.01.02-4.5.23-3.11.38-5.97-4.27-4.77-1.58.41-2.17-.61-2.06-2.13.1-1.3-.33-3.09,1.87-2.73,3.91.64,4.09-1.57,3.93-4.51-.11-1.91,6.95-5.48,8.41-4.27,1.17.97.68,2.6.51,3.85-.52,3.81.63,5.58,4.76,4.96,1.29-.19,3.45-1.03,3.53,1.86.08,2.75-1.51,3.32-3.67,2.99-3.77-.58-5.03.9-4.64,4.63.32,3.1.2,6.27.03,9.4-.2,3.48,1.14,5.15,4.72,4.84.94-.08,1.94-.09,2.84.14,1.02.26,1.4,1.2,1.46,2.22.08,1.29-.74,1.66-1.81,1.65-3.67-.04-7.37.11-11.02-.24-2.87-.27-4.6-2.03-4.5-5.21.09-2.72.02-5.45.02-8.17-.05,0-.09,0-.14,0Z"/><path class="cls-2" d="m641.74,223.18c0-1.5-.07-3,.01-4.5.17-3.02.52-6.06-4.24-4.8-1.55.41-2.21-.55-2.08-2.1.11-1.28-.37-3.11,1.84-2.76,3.86.61,4.15-1.49,3.96-4.48-.12-1.93,6.86-5.5,8.38-4.31,1.22.95.7,2.58.53,3.82-.49,3.75.55,5.62,4.74,4.99,1.27-.19,3.46-1.06,3.56,1.82.1,2.73-1.46,3.34-3.64,3.02-3.71-.55-5.09.81-4.67,4.6.33,2.96.24,6,.02,8.99-.27,3.82,1.1,5.72,5.11,5.28.8-.09,1.66-.08,2.43.13,1.03.28,1.42,1.18,1.49,2.2.09,1.26-.69,1.66-1.78,1.69-3.8.1-7.59.27-11.37-.37-2.9-.49-4.19-2.18-4.17-5.05.02-2.72,0-5.45,0-8.17h-.14Z"/><path class="cls-2" d="m422.88,223.24c0-1.64-.14-3.29.03-4.9.33-3.19.16-5.62-4.2-4.46-1.91.51-2.15-.88-2.17-2.45-.01-1.62.32-2.78,2.22-2.44,3.44.62,3.74-1.29,3.6-3.99-.12-2.25,6.51-6.04,8.34-4.79,1.31.9.73,2.55.58,3.78-.43,3.66.4,5.71,4.68,5.04,1.46-.23,3.75-.95,3.63,2.19-.1,2.58-1.69,2.98-3.59,2.65-4.2-.72-5.09,1.22-4.73,4.96.31,3.24.14,6.54.05,9.81-.09,2.98,1.31,4.24,4.2,4.1,1.09-.05,2.22-.14,3.25.12,1.2.29,1.61,1.37,1.53,2.56-.07,1.06-.84,1.3-1.71,1.33-3.8.12-7.6.31-11.37-.35-2.81-.49-4.26-2.1-4.21-5.01.04-2.72,0-5.45,0-8.17h-.15Z"/><path class="cls-2" d="m353.51,217.98c0,5.05-.2,10.12.06,15.16.22,4.19-2.42,3.7-5.07,3.77-2.54.07-4.3.1-4.21-3.5.26-10.37.27-20.76.01-31.14-.11-4.46,2.83-2.94,4.92-3.1,2.27-.17,4.62-.64,4.37,3.24-.34,5.17-.08,10.38-.08,15.57Z"/><path class="cls-2" d="m1172.57,218.01c0-5.31.17-10.63-.05-15.93-.17-4.15,2.71-2.78,4.71-2.91,2.13-.14,4.24-.59,4.16,3.05-.24,10.34-.13,20.7-.06,31.05.03,4.07-2.8,3.41-5.32,3.65-2.65.25-3.6-.63-3.5-3.38.2-5.17.06-10.35.06-15.52Z"/><path class="cls-2" d="m847.15,217.98c0-5.18.24-10.37-.08-15.52-.24-3.81,2.04-3.39,4.37-3.31,2.14.08,4.63-.9,4.53,3.11-.24,10.21-.2,20.43-.02,30.64.08,4.28-2.65,3.76-5.39,4.04-3.18.32-3.53-1.25-3.45-3.84.15-5.03.04-10.08.05-15.12Z"/><path class="cls-2" d="m501.29,222.64c0-3.13-.12-6.27.05-9.4.08-1.43-1.06-3.87,1.25-4.08,2.12-.19,4.91-1.53,6.55,1.06,1.02,1.61,1.38.1,1.95-.16,4.61-2.09,9.33-2.59,14.23-1.17,1.05.31,2.76.07,2.11,1.92-.52,1.45-1.33,3.51-3.33,2.68-2.2-.91-4.29-.24-6.41-.35-4.98-.26-7.48,2.15-7.62,7.26-.12,4.36.04,8.72-.06,13.08-.1,4.3-3.73,2.81-5.98,3.34-2.57.61-2.81-1.13-2.76-3.15.09-3.68.02-7.35.03-11.03Z"/><path class="cls-2" d="m674.84,222.51c0,3.67-.13,7.35.03,11.01.18,4.05-2.64,3.16-4.98,3.39-2.65.26-3.54-.67-3.48-3.38.16-7.2.23-14.41-.02-21.61-.13-3.75,2.25-2.93,4.27-2.92,2.01,0,4.53-.86,4.24,2.92-.28,3.51-.06,7.06-.06,10.6Z"/><path class="cls-2" d="m1220.59,222.73c0-3.81.04-7.61-.01-11.42-.05-3.71,2.75-2.17,4.4-2.25,1.57-.08,4.05-1.19,4,2.23-.09,7.48-.1,14.95,0,22.43.05,3.78-2.54,3.02-4.77,3.17-2.34.16-3.89-.13-3.69-3.16.24-3.65.06-7.34.06-11.01Z"/><path class="cls-2" d="m670.03,204.9c-2.37.15-4.44.12-4.3-3.24.19-4.58,3.56-2,5.46-2.44,1.76-.4,3.79-.64,3.7,2.57-.1,3.84-2.67,3-4.85,3.11Z"/><path class="cls-2" d="m1224.39,199.07c1.53.74,4.54-1.57,4.6,2.54.06,3.74-2.33,3.31-4.67,3.3-2.18-.01-4.39.42-4.5-3.06-.13-4.01,2.7-2.32,4.57-2.78Z"/><path class="cls-2" d="m905.66,123.69c-.03.5-.4.68-.74.49-.19-.11-.16-.6-.23-.91.46-.17.96-.44.96.42Z"/></svg>